<svg width="269" height="46" viewBox="0 0 269 46" fill="none" xmlns="http://www.w3.org/2000/svg">
<path d="M1.23978e-05 44.992V0.192001H11.712V44.992H1.23978e-05ZM48.5125 0.192001H60.0325V45.12H55.2965L32.7045 22.272L32.8325 30.336V44.992H21.3125V3.8147e-06H26.0485L48.7045 22.144L48.5125 14.208V0.192001ZM97.593 10.688H81.337V17.856H95.673V28.16H81.337V44.992H69.625V0.192001H97.593V10.688ZM104.563 44.992V0.192001H116.275V44.992H104.563ZM153.075 0.192001H164.595V45.12H159.859L137.267 22.272L137.395 30.336V44.992H125.875V3.8147e-06H130.611L153.267 22.144L153.075 14.208V0.192001ZM174.188 44.992V0.192001H185.9V44.992H174.188ZM225.132 0.192001V10.688H214.316V44.992H202.604V10.688H191.788V0.192001H225.132ZM255.704 0.192001H268.632V0.896004L253.144 27.264V44.992H241.432V27.264L225.816 0.896004V0.192001H238.936L243.736 8.704L247.384 16.256L250.904 8.768L255.704 0.192001Z" fill="black"/>
</svg>
